<svg width="10" height="6" viewBox="0 0 10 6" fill="none" xmlns="http://www.w3.org/2000/svg">
<path d="M8.03692 0.948008C8.16061 0.828776 8.32421 0.763865 8.49325 0.766951C8.6623 0.770036 8.82358 0.840877 8.94313 0.964548C9.06268 1.08822 9.13116 1.25507 9.13414 1.42994C9.13713 1.60481 9.07438 1.77405 8.95912 1.90201L5.26162 5.72701C5.13928 5.85341 4.97343 5.92441 4.80052 5.92441C4.62761 5.92441 4.46176 5.85341 4.33942 5.72701L0.641921 1.90201C0.526663 1.77405 0.463916 1.60481 0.466899 1.42994C0.469881 1.25507 0.538361 1.08822 0.65791 0.964548C0.777459 0.840877 0.938744 0.770036 1.10779 0.766951C1.27683 0.763865 1.44043 0.828776 1.56412 0.948008L4.80052 4.29526L8.03692 0.948008Z" fill="black"/>
</svg>
