<svg width="225" height="225" viewBox="0 0 225 225" fill="none" xmlns="http://www.w3.org/2000/svg">
<g filter="url(#filter0_f_104_57)">
<rect x="87.8457" y="68" width="72" height="72" rx="20" transform="rotate(16 87.8457 68)" fill="#FA743A" fill-opacity="0.2"/>
</g>
<rect x="87.8457" y="68" width="72" height="72" rx="20" transform="rotate(16 87.8457 68)" fill="#FA743A"/>
<path d="M102.974 96.1555L102.695 101.888L99.9009 106.873L103.764 111.115L105.29 116.632L111.023 116.911L116.032 119.712L120.25 115.842L125.773 114.292L126.046 108.583L128.847 103.574L125.007 99.3397L123.457 93.816L117.718 93.5603L112.732 90.766L108.475 94.5992L102.974 96.1555ZM111.689 114.676C109.211 113.965 107.118 112.3 105.869 110.046C104.619 107.792 104.316 105.135 105.027 102.657C105.737 100.18 107.402 98.0866 109.656 96.8373C111.91 95.5879 114.568 95.2851 117.045 95.9954C122.182 97.4685 125.164 102.847 123.69 107.984C122.204 113.168 116.826 116.149 111.689 114.676ZM112.312 112.327C108.435 111.216 106.227 107.196 107.338 103.32C108.443 99.4674 112.453 97.2056 116.329 98.3171C120.205 99.4286 122.454 103.485 121.349 107.338C120.237 111.214 116.188 113.439 112.312 112.327ZM120.542 117.467L116.053 121.841L111.511 119.35L113.515 134.658L118.257 130.458L124.095 132.132L120.542 117.467ZM102.515 112.475L103.927 118.566L109.242 118.801L99.5045 130.64L97.7085 124.566L91.8709 122.892L102.515 112.475Z" fill="white"/>
<defs>
<filter id="filter0_f_104_57" x="0.732422" y="0.732849" width="223.592" height="223.591" filterUnits="userSpaceOnUse" color-interpolation-filters="sRGB">
<feFlood flood-opacity="0" result="BackgroundImageFix"/>
<feBlend mode="normal" in="SourceGraphic" in2="BackgroundImageFix" result="shape"/>
<feGaussianBlur stdDeviation="36" result="effect1_foregroundBlur_104_57"/>
</filter>
</defs>
</svg>
