<svg width="16" height="16" viewBox="0 0 16 16" fill="none" xmlns="http://www.w3.org/2000/svg">
<g clip-path="url(#clip0_104_722)">
<path d="M2.43359 6.04333C2.43359 2.96729 4.83113 0.5 7.73359 0.5C10.6361 0.5 13.0336 2.96729 13.0336 6.04333C13.0336 8.2461 11.8008 10.5432 10.4742 12.3626C9.21157 14.0943 7.92234 15.3148 7.73393 15.49C7.55046 15.3197 6.25838 14.0979 4.99295 12.3625C3.66637 10.5432 2.43359 8.2461 2.43359 6.04333Z" stroke="#5C5CBC"/>
<path d="M9.64974 5.5C9.64974 6.62068 8.77578 7.5 7.73307 7.5C6.69037 7.5 5.81641 6.62068 5.81641 5.5C5.81641 4.37932 6.69037 3.5 7.73307 3.5C8.77578 3.5 9.64974 4.37932 9.64974 5.5Z" stroke="#5C5CBC"/>
</g>
<defs>
<clipPath id="clip0_104_722">
<rect width="15.4667" height="16" fill="white"/>
</clipPath>
</defs>
</svg>
