<svg width="168" height="31" viewBox="0 0 168 31" fill="none" xmlns="http://www.w3.org/2000/svg">
<path d="M51.3689 24.05C50.8912 24.2554 50.3073 24.4608 49.6172 24.6662C48.9272 24.8716 48.2017 24.9743 47.4409 24.9743C46.9454 24.9743 46.4766 24.9144 46.0342 24.7946C45.6096 24.6748 45.2291 24.4865 44.8929 24.2297C44.5745 23.9559 44.3179 23.6135 44.1233 23.2027C43.9286 22.7748 43.8313 22.2613 43.8313 21.6622V13.9338H42V11.2892H43.8313V6.92432H47.3878V11.2892H50.3073V13.9338H47.3878V20.5068C47.3878 20.986 47.5116 21.3284 47.7594 21.5338C48.0248 21.7221 48.3433 21.8162 48.7148 21.8162C49.0864 21.8162 49.4491 21.7563 49.803 21.6365C50.1569 21.5167 50.44 21.414 50.6523 21.3284L51.3689 24.05Z" fill="#5C5CBC"/>
<path d="M57.4677 25C56.0345 25 54.9463 24.555 54.2032 23.6649C53.46 22.7748 53.0885 21.4568 53.0885 19.7108V11.2892H56.6449V18.9662C56.6449 21.0374 57.4146 22.073 58.954 22.073C59.644 22.073 60.3076 21.8761 60.9445 21.4824C61.5992 21.0716 62.13 20.4554 62.537 19.6338V11.2892H66.0935V20.7892C66.0935 21.1486 66.1554 21.4054 66.2792 21.5595C66.4208 21.7135 66.642 21.7991 66.9428 21.8162V24.7432C66.5889 24.8117 66.2881 24.8545 66.0404 24.8716C65.8104 24.8887 65.598 24.8973 65.4034 24.8973C64.7664 24.8973 64.2444 24.7604 63.8375 24.4865C63.4482 24.1955 63.2182 23.8018 63.1474 23.3054L63.0678 22.227C62.4485 23.1514 61.6523 23.8446 60.6791 24.3068C59.706 24.7689 58.6355 25 57.4677 25Z" fill="#5C5CBC"/>
<path d="M77.9616 24.05C77.4838 24.2554 76.8999 24.4608 76.2099 24.6662C75.5198 24.8716 74.7943 24.9743 74.0335 24.9743C73.5381 24.9743 73.0692 24.9144 72.6268 24.7946C72.2022 24.6748 71.8218 24.4865 71.4856 24.2297C71.1671 23.9559 70.9105 23.6135 70.7159 23.2027C70.5213 22.7748 70.424 22.2613 70.424 21.6622V13.9338H68.5926V11.2892H70.424V6.92432H73.9804V11.2892H76.8999V13.9338H73.9804V20.5068C73.9804 20.986 74.1043 21.3284 74.352 21.5338C74.6174 21.7221 74.9359 21.8162 75.3075 21.8162C75.679 21.8162 76.0418 21.7563 76.3956 21.6365C76.7495 21.5167 77.0326 21.414 77.2449 21.3284L77.9616 24.05Z" fill="#5C5CBC"/>
<path d="M85.8997 25C84.7673 25 83.7499 24.8117 82.8475 24.4351C81.9452 24.0586 81.1755 23.5536 80.5385 22.9203C79.9192 22.2698 79.4415 21.5252 79.1053 20.6865C78.7691 19.8477 78.601 18.9662 78.601 18.0419C78.601 17.1005 78.7691 16.2104 79.1053 15.3716C79.4415 14.5329 79.9192 13.7968 80.5385 13.1635C81.1755 12.5131 81.9452 11.9995 82.8475 11.623C83.7499 11.2464 84.7673 11.0581 85.8997 11.0581C87.0321 11.0581 88.0407 11.2464 88.9254 11.623C89.8278 11.9995 90.5886 12.5131 91.2079 13.1635C91.8449 13.7968 92.3315 14.5329 92.6676 15.3716C93.0038 16.2104 93.1719 17.1005 93.1719 18.0419C93.1719 18.9662 93.0038 19.8477 92.6676 20.6865C92.3315 21.5252 91.8537 22.2698 91.2344 22.9203C90.6152 23.5536 89.8543 24.0586 88.9519 24.4351C88.0495 24.8117 87.0321 25 85.8997 25ZM82.2636 18.0419C82.2636 18.641 82.3521 19.1887 82.5291 19.6851C82.7237 20.1644 82.9803 20.5838 83.2987 20.9432C83.6349 21.3027 84.0242 21.5851 84.4665 21.7905C84.9089 21.9788 85.3866 22.073 85.8997 22.073C86.4129 22.073 86.8906 21.9788 87.3329 21.7905C87.7753 21.5851 88.1557 21.3027 88.4742 20.9432C88.8104 20.5838 89.0669 20.1559 89.2439 19.6595C89.4385 19.1631 89.5358 18.6153 89.5358 18.0162C89.5358 17.4342 89.4385 16.895 89.2439 16.3986C89.0669 15.9023 88.8104 15.4743 88.4742 15.1149C88.1557 14.7554 87.7753 14.4815 87.3329 14.2932C86.8906 14.0878 86.4129 13.9851 85.8997 13.9851C85.3866 13.9851 84.9089 14.0878 84.4665 14.2932C84.0242 14.4986 83.6349 14.7811 83.2987 15.1405C82.9803 15.5 82.7237 15.9279 82.5291 16.4243C82.3521 16.9207 82.2636 17.4599 82.2636 18.0419Z" fill="#5C5CBC"/>
<path d="M103.853 14.2676C102.774 14.2847 101.81 14.4901 100.96 14.8838C100.111 15.2604 99.5005 15.8338 99.1289 16.6041V24.7432H95.5724V11.2892H98.8369V14.1649C99.0846 13.7027 99.3766 13.2919 99.7128 12.9324C100.049 12.5559 100.412 12.2306 100.801 11.9568C101.19 11.6829 101.579 11.4775 101.969 11.3405C102.376 11.1865 102.765 11.1095 103.137 11.1095C103.331 11.1095 103.473 11.1095 103.561 11.1095C103.667 11.1095 103.765 11.118 103.853 11.1351V14.2676Z" fill="#5C5CBC"/>
<path d="M111.091 25C109.924 25 108.782 24.8203 107.668 24.4608C106.553 24.1014 105.597 23.5878 104.801 22.9203L106.128 20.7635C106.977 21.3455 107.8 21.7905 108.596 22.0986C109.41 22.3896 110.215 22.5351 111.012 22.5351C111.719 22.5351 112.277 22.4068 112.684 22.15C113.091 21.8932 113.294 21.5252 113.294 21.0459C113.294 20.5667 113.055 20.2158 112.578 19.9932C112.1 19.7707 111.321 19.514 110.242 19.223C109.34 18.9833 108.57 18.7523 107.933 18.5297C107.296 18.3072 106.783 18.059 106.394 17.7851C106.004 17.4941 105.721 17.1689 105.544 16.8095C105.367 16.4329 105.279 15.9878 105.279 15.4743C105.279 14.7896 105.412 14.1734 105.677 13.6257C105.96 13.0779 106.349 12.6158 106.845 12.2392C107.34 11.8455 107.915 11.5459 108.57 11.3405C109.242 11.1351 109.968 11.0324 110.746 11.0324C111.79 11.0324 112.763 11.1779 113.666 11.4689C114.586 11.7599 115.426 12.2306 116.187 12.8811L114.754 14.9608C114.046 14.4473 113.356 14.0707 112.684 13.8311C112.029 13.5914 111.374 13.4716 110.72 13.4716C110.118 13.4716 109.614 13.5914 109.207 13.8311C108.8 14.0707 108.596 14.4559 108.596 14.9865C108.596 15.2261 108.641 15.423 108.729 15.577C108.835 15.7311 108.995 15.868 109.207 15.9878C109.419 16.1077 109.694 16.2275 110.03 16.3473C110.384 16.45 110.817 16.5613 111.33 16.6811C112.286 16.9207 113.1 17.1604 113.772 17.4C114.462 17.6396 115.019 17.9135 115.444 18.2216C115.886 18.5297 116.205 18.8892 116.399 19.3C116.612 19.6937 116.718 20.173 116.718 20.7378C116.718 22.0559 116.214 23.1 115.205 23.8703C114.197 24.6234 112.825 25 111.091 25Z" fill="#5C5CBC"/>
<path d="M118.949 24.7432V21.0459H121.869V24.7432H118.949Z" fill="#5C5CBC"/>
<path d="M124.964 6H128.52V20.4297C128.52 20.9261 128.644 21.3113 128.892 21.5851C129.139 21.859 129.493 21.9959 129.953 21.9959C130.166 21.9959 130.396 21.9617 130.643 21.8932C130.909 21.8248 131.157 21.7392 131.387 21.6365L131.864 24.2554C131.387 24.4779 130.829 24.6491 130.192 24.7689C129.555 24.8887 128.98 24.9486 128.467 24.9486C127.352 24.9486 126.485 24.6662 125.866 24.1014C125.264 23.5194 124.964 22.6977 124.964 21.6365V6Z" fill="#5C5CBC"/>
<path d="M133.414 24.7432V11.2892H136.97V24.7432H133.414ZM133.414 9.41487V6H136.97V9.41487H133.414Z" fill="#5C5CBC"/>
<path d="M143.921 24.7432L138.798 11.2892H142.461L145.991 21.9446L149.548 11.2892H152.892L147.769 24.7432H143.921Z" fill="#5C5CBC"/>
<path d="M160.728 25C159.613 25 158.605 24.8203 157.702 24.4608C156.8 24.0842 156.03 23.5793 155.393 22.9459C154.756 22.3126 154.261 21.5766 153.907 20.7378C153.571 19.8991 153.403 19.0176 153.403 18.0932C153.403 17.1347 153.571 16.236 153.907 15.3973C154.243 14.5414 154.73 13.7968 155.367 13.1635C156.004 12.5131 156.773 11.9995 157.676 11.623C158.596 11.2464 159.622 11.0581 160.754 11.0581C161.887 11.0581 162.895 11.2464 163.78 11.623C164.682 11.9995 165.443 12.5045 166.063 13.1378C166.699 13.7712 167.177 14.5072 167.496 15.3459C167.832 16.1847 168 17.0577 168 17.9649C168 18.1874 167.991 18.4014 167.973 18.6068C167.973 18.8122 167.956 18.9833 167.92 19.1203H157.171C157.224 19.6509 157.357 20.1216 157.569 20.5324C157.782 20.9432 158.056 21.2941 158.392 21.5851C158.728 21.8761 159.109 22.0986 159.533 22.2527C159.958 22.4068 160.4 22.4838 160.861 22.4838C161.568 22.4838 162.232 22.3212 162.851 21.9959C163.488 21.6536 163.922 21.2086 164.152 20.6608L167.204 21.4824C166.691 22.5095 165.868 23.3568 164.735 24.0243C163.621 24.6748 162.285 25 160.728 25ZM164.337 16.8865C164.249 15.8766 163.86 15.0721 163.17 14.473C162.497 13.8568 161.674 13.5486 160.701 13.5486C160.224 13.5486 159.772 13.6342 159.348 13.8054C158.941 13.9595 158.578 14.182 158.26 14.473C157.941 14.764 157.676 15.1149 157.463 15.5257C157.269 15.9365 157.154 16.3901 157.118 16.8865H164.337Z" fill="#5C5CBC"/>
<circle cx="15.5" cy="15.5" r="15.5" fill="#5C5CBC"/>
<rect x="13" y="8" width="6" height="6" rx="3" transform="rotate(90 13 8)" fill="white"/>
<rect x="24" y="8" width="6" height="9" rx="3" transform="rotate(90 24 8)" fill="white"/>
<rect x="24" y="16" width="7" height="17" rx="3.5" transform="rotate(90 24 16)" fill="white"/>
</svg>
