<svg width="18" height="18" viewBox="0 0 18 18" fill="none" xmlns="http://www.w3.org/2000/svg">
<path d="M0.966797 0.5H6.20013C7.02856 0.5 7.70013 1.17157 7.70013 2V6C7.70013 6.82843 7.02856 7.5 6.20013 7.5H2.4668C1.63837 7.5 0.966797 6.82843 0.966797 6V0.5Z" stroke="#5C5CBC"/>
<rect x="0.966797" y="10.5" width="6.73333" height="7" rx="1.5" stroke="#5C5CBC"/>
<rect x="10.6328" y="0.5" width="6.73333" height="7" rx="1.5" stroke="#5C5CBC"/>
<path d="M10.6328 12C10.6328 11.1716 11.3044 10.5 12.1328 10.5H15.8661C16.6946 10.5 17.3661 11.1716 17.3661 12V17.5H12.1328C11.3044 17.5 10.6328 16.8284 10.6328 16V12Z" stroke="#5C5CBC"/>
</svg>
