<svg width="60" height="60" viewBox="0 0 60 60" fill="none" xmlns="http://www.w3.org/2000/svg">
<circle cx="30" cy="30" r="30" fill="#5C5CBC" fill-opacity="0.12"/>
<path d="M44.1211 18H15.8789C15.3935 18 15 18.3935 15 18.8789V22.6446C15 23.1299 15.3935 23.5235 15.8789 23.5235H15.9414V41.4727C15.9414 41.958 16.3349 42.3516 16.8203 42.3516H29.1211V42.6208C28.028 42.9888 27.2382 44.0228 27.2382 45.2383C27.2382 46.7611 28.4772 48 30 48C31.5228 48 32.7618 46.7611 32.7618 45.2383C32.7618 44.0228 31.972 42.9888 30.8789 42.6208V42.3516H43.1797C43.6651 42.3516 44.0586 41.958 44.0586 41.4727V23.5235H44.1211C44.6065 23.5235 45 23.1299 45 22.6446V18.8789C45 18.3935 44.6065 18 44.1211 18V18ZM31.0039 45.2383C31.0039 45.7918 30.5535 46.2422 30 46.2422C29.4465 46.2422 28.9961 45.7918 28.9961 45.2383C28.9961 44.6848 29.4465 44.2344 30 44.2344C30.5535 44.2344 31.0039 44.6847 31.0039 45.2383ZM42.3008 40.5938H17.6992V23.5235H42.3008V40.5938H42.3008ZM43.2422 21.7656H16.7578V19.7578H43.2422V21.7656Z" fill="#5C5CBC"/>
<path d="M23.273 38.3285C23.4378 38.4933 23.6614 38.5859 23.8945 38.5859H28.5742C28.8073 38.5859 29.0309 38.4933 29.1957 38.3285L32.5043 35.0194C32.6691 34.8546 32.7617 34.631 32.7617 34.398V29.7188C32.7617 29.4856 32.6691 29.2622 32.5043 29.0973L29.1956 25.7888C29.0308 25.6239 28.8073 25.5313 28.5742 25.5313H23.8946C23.6614 25.5313 23.4379 25.6239 23.2731 25.7888L19.9645 29.0973C19.7997 29.2622 19.707 29.4857 19.707 29.7188V34.398C19.707 34.6311 19.7996 34.8546 19.9644 35.0195L23.273 38.3285ZM21.4648 30.0828L24.2586 27.2891H28.2102L31.004 30.0828V34.034L28.2102 36.8282H24.2587L21.4648 34.034V30.0828Z" fill="#5C5CBC"/>
<path d="M28.1171 32.9375C28.6025 32.9375 28.9961 32.544 28.9961 32.0586C28.9961 31.5732 28.6025 31.1797 28.1171 31.1797H24.3516C23.8662 31.1797 23.4727 31.5732 23.4727 32.0586C23.4727 32.544 23.8662 32.9375 24.3516 32.9375H28.1171Z" fill="#5C5CBC"/>
<path d="M35.6484 29.1719H39.4141C39.8995 29.1719 40.293 28.7784 40.293 28.293C40.293 27.8076 39.8995 27.4141 39.4141 27.4141H35.6484C35.163 27.4141 34.7695 27.8076 34.7695 28.293C34.7695 28.7784 35.163 29.1719 35.6484 29.1719Z" fill="#5C5CBC"/>
<path d="M35.6484 32.9375H39.4141C39.8995 32.9375 40.293 32.544 40.293 32.0586C40.293 31.5732 39.8995 31.1797 39.4141 31.1797H35.6484C35.163 31.1797 34.7695 31.5732 34.7695 32.0586C34.7695 32.544 35.163 32.9375 35.6484 32.9375Z" fill="#5C5CBC"/>
<path d="M35.6484 36.7031H37.5312C38.0166 36.7031 38.4101 36.3096 38.4101 35.8242C38.4101 35.3388 38.0166 34.9453 37.5312 34.9453H35.6484C35.163 34.9453 34.7695 35.3388 34.7695 35.8242C34.7695 36.3096 35.163 36.7031 35.6484 36.7031Z" fill="#5C5CBC"/>
</svg>
